:SAMPLES-PER-SECOND 30
:FRAME-RANGE 1-1086
:FULLY-SPECIFIED
:DEGREES
645
root  75.9322 39.1012 41.6598 179.915 22.0008 177.893
RightUpLeg  -29.3424 -8.58121 -6.33175
RightLeg  43.2744 -6.74505 -7.03695
RightFoot  -1.26523 -1.25811 14.1066
RightToes  -5.8209e-011 0 -3.6325e-017
Spine  5.29959 -0.713712 -8.35689
Spine1  1.00488 -0.552221 -2.03462
HEad  2.42777 -3.8739 -0.495527
LeftShoulder1  1.87489 -1.7131 -29.8887
LeftArm  3.21832 -13.0551 -28.7972
LeftForeArm  -7.36941 -61.1839 -21.817
LeftHand  -0.140895 6.01392 -16.3939
RightShoulder  8.17635 14.35 39.68
RightArm  -2.49537 7.68716 9.57994
RightForeArm  -23.7959 60.9315 22.8958
RightHand  -0.317181 -6.86736 19.8697
LeftUpLeg  -7.20544 7.80008 -4.02858
LeftLeg  14.7822 15.2336 -0.720127
LeftFoot  -9.5794 0.0247124 2.13876
LeftToes  5.72949e-011 5.22586e-011 2.45399e-011
646
root  76.2184 39.2282 41.0315 -179.722 21.495 178.036
RightUpLeg  -28.2295 -9.86047 -5.32263
RightLeg  31.5112 -8.54143 -5.83745
RightFoot  -0.589625 -1.30607 13.7748
RightToes  -5.8209e-011 0 -3.6325e-017
Spine  4.74651 -0.940299 -7.89858
Spine1  1.27867 -0.706907 -1.59868
HEad  4.62553 -3.35433 0.20321
LeftShoulder1  1.92218 -1.88637 -29.6082
LeftArm  3.7711 -14.301 -29.3111
LeftForeArm  -8.43133 -60.2004 -20.9667
LeftHand  -0.128124 5.92845 -16.4082
RightShoulder  8.19044 14.4013 39.6294
RightArm  -2.98862 7.89413 9.46436
RightForeArm  -24.0889 60.6619 22.6451
RightHand  -0.313755 -6.84769 19.8806
LeftUpLeg  -5.44104 7.70472 -3.76174
LeftLeg  12.7842 14.7517 -1.26056
LeftFoot  -9.51691 0.0253815 1.99979
LeftToes  5.72949e-011 5.22586e-011 2.45399e-011
647
root  76.5508 39.281 40.3719 -179.645 21.0222 177.856
RightUpLeg  -26.128 -11.6586 -4.25243
RightLeg  18.9795 -7.19968 -2.94929
RightFoot  0.113945 -1.33015 13.2152
RightToes  -5.8209e-011 0 -3.6325e-017
Spine  4.0633 -1.13067 -7.69822
Spine1  1.73224 -0.855999 -1.31002
HEad  8.23572 -2.60664 0.711139
LeftShoulder1  1.9617 -2.0232 -29.4389
LeftArm  4.23617 -15.375 -29.6632
LeftForeArm  -9.2775 -59.3251 -20.2518
LeftHand  -0.109938 5.8089 -16.3689
RightShoulder  8.22661 14.5063 39.5654
RightArm  -3.37436 8.10175 9.45584
RightForeArm  -24.554 60.2849 22.3065
RightHand  -0.31766 -6.86999 19.8697
LeftUpLeg  -3.67472 7.67535 -3.6973
LeftLeg  11.3492 14.2441 -1.67314
LeftFoot  -9.8373 0.0365208 1.72291
LeftToes  5.72949e-011 5.22586e-011 2.45399e-011
648
root  76.9442 39.2392 39.6433 179.917 20.4033 177.339
RightUpLeg  -22.7579 -11.1524 -4.97018
RightLeg  7.69555 -7.26092 0.187128
RightFoot  0.915936 -1.53117 14.2509
RightToes  -5.8209e-011 0 -3.6325e-017
Spine  3.14015 -1.2982 -7.85822
Spine1  2.61509 -1.00049 -1.1614
HEad  14.0935 -2.13991 0.993584
LeftShoulder1  2.01902 -2.19844 -29.3536
LeftArm  4.86314 -16.4937 -29.9913
LeftForeArm  -10.2425 -58.1424 -19.3387
LeftHand  -0.0800449 5.60788 -16.4629
RightShoulder  8.25148 14.6191 39.4236
RightArm  -3.71405 8.22396 9.52663
RightForeArm  -24.9947 59.8966 21.9649
RightHand  -0.330609 -6.93559 19.9368
LeftUpLeg  -1.74098 7.76692 -3.78797
LeftLeg  10.8592 13.3552 -1.92908
LeftFoot  -10.7969 0.0591351 1.20648
LeftToes  5.72949e-011 5.22586e-011 2.45399e-011
649
root  77.4033 39.1463 38.8586 179.113 19.6519 176.84
RightUpLeg  -18.8222 -7.71782 -6.90908
RightLeg  -0.579156 -11.5838 3.05702
RightFoot  2.0059 -1.67136 14.3335
RightToes  -5.8209e-011 0 -3.6325e-017
Spine  2.18496 -1.45031 -8.01914
Spine1  3.74257 -1.19285 -0.943725
HEad  21.7505 -2.06283 0.762439
LeftShoulder1  2.06373 -2.34039 -29.2581
LeftArm  5.62615 -17.5181 -30.3313
LeftForeArm  -11.5763 -56.9103 -18.4867
LeftHand  -0.0662537 5.51494 -16.5697
RightShoulder  8.24334 14.6505 39.3052
RightArm  -3.77085 8.50211 9.60539
RightForeArm  -25.4772 59.4325 21.5662
RightHand  -0.331024 -6.94463 19.8547
LeftUpLeg  0.399817 7.91549 -3.7565
LeftLeg  11.0826 12.3436 -1.90683
LeftFoot  -12.2196 0.0762839 0.381987
LeftToes  5.72949e-011 5.22586e-011 2.45399e-011
650
root  77.9282 38.9982 38.0282 178.256 18.8345 176.36
RightUpLeg  -16.088 -7.12254 -6.8706
RightLeg  -3.45993 -13.3269 3.62226
RightFoot  1.43735 -1.53289 13.7168
RightToes  -5.8209e-011 0 -3.6325e-017
Spine  1.30208 -1.59548 -8.23328
Spine1  5.17436 -1.42236 -0.692458
HEad  28.0076 -2.03341 0.352071
LeftShoulder1  2.06097 -2.37321 -29.0095
LeftArm  6.00771 -18.2511 -30.6259
LeftForeArm  -12.296 -56.3221 -18.1093
LeftHand  -0.0642171 5.51781 -16.5958
RightShoulder  8.13528 14.5105 39.0707
RightArm  -3.84167 8.84394 9.60934
RightForeArm  -25.668 59.5208 21.6586
RightHand  -0.35731 -7.10463 19.6834
LeftUpLeg  2.3397 8.081 -3.63013
LeftLeg  12.088 11.2784 -1.60338
LeftFoot  -13.9807 0.0733404 -0.457179
LeftToes  5.72949e-011 5.22586e-011 2.45399e-011
651
root  78.4055 39.0401 37.2763 178.281 18.3306 176.762
RightUpLeg  -14.9888 -6.43831 -5.67178
RightLeg  -3.18881 -13.5384 3.33717
RightFoot  5.57932 -1.21594 8.41836
RightToes  -5.8209e-011 0 -3.6325e-017
Spine  0.935366 -1.49845 -6.69982
Spine1  6.32252 -1.52293 -0.23436
HEad  29.1476 -2.07044 0.190856
LeftShoulder1  2.04517 -2.35644 -28.8364
LeftArm  6.17641 -18.6464 -30.7105
LeftForeArm  -12.1526 -56.4561 -18.1956
LeftHand  -0.0587988 5.464 -16.7295
RightShoulder  7.96569 14.2572 38.7762
RightArm  -4.11479 8.76168 9.4462
RightForeArm  -25.1181 60.2651 22.3234
RightHand  -0.375269 -7.20844 19.6391
LeftUpLeg  4.34548 8.15003 -2.69627
LeftLeg  11.1726 10.5213 -1.62612
LeftFoot  -14.5833 0.0545785 -1.16191
LeftToes  5.72949e-011 5.22586e-011 2.45399e-011
652
root  78.8778 39.0379 36.5286 178.812 18.2738 177.571
RightUpLeg  -14.9092 -5.56559 -4.46949
RightLeg  -2.677 -14.034 2.86604
RightFoot  11.747 -0.913876 4.86888
RightToes  -5.8209e-011 0 -3.6325e-017
Spine  1.38236 -1.30533 -3.95275
Spine1  6.13511 -1.31404 -0.498951
HEad  26.7557 -2.15383 0.267077
LeftShoulder1  2.0389 -2.31409 -28.9854
LeftArm  6.22967 -18.3655 -30.6059
LeftForeArm  -11.7931 -56.9735 -18.5508
LeftHand  -0.0639476 5.4973 -16.7508
RightShoulder  7.86033 14.0417 38.731
RightArm  -4.37234 8.31411 9.2723
RightForeArm  -24.1367 61.0966 23.0865
RightHand  -0.374749 -7.22037 19.4871
LeftUpLeg  5.32978 9.35321 -1.38115
LeftLeg  11.5375 9.04741 -1.12065
LeftFoot  -15.5312 0.0127204 -2.19748
LeftToes  5.72949e-011 5.22586e-011 2.45399e-011
653
root  79.3662 39.0546 35.7454 179.575 18.5481 178.981
RightUpLeg  -15.7253 -4.99706 -2.88232
RightLeg  0.931912 -13.7133 2.43158
RightFoot  10.8513 -0.391684 2.37828
RightToes  -5.8209e-011 0 -3.6325e-017
Spine  2.02861 -1.14367 -0.534497
Spine1  5.67338 -1.06028 -0.883519
HEad  22.4199 -1.66821 0.0318124
LeftShoulder1  2.03786 -2.2748 -29.3706
LeftArm  5.85211 -17.3938 -30.7355
LeftForeArm  -11.232 -57.2887 -18.7463
LeftHand  -0.0379039 5.32754 -16.7717
RightShoulder  7.90868 14.076 38.9106
RightArm  -4.76072 8.07979 9.06995
RightForeArm  -23.4785 61.3002 23.2527
RightHand  -0.355155 -7.09612 19.6458
LeftUpLeg  5.19021 12.8837 0.801938
LeftLeg  14.2348 5.68677 0.0466314
LeftFoot  -16.2385 -0.0901192 -4.38109
LeftToes  5.72949e-011 5.22586e-011 2.45399e-011
654
root  79.9156 39.0902 34.9893 -179.689 18.4912 -179.976
RightUpLeg  -15.979 -4.85118 -1.79052
RightLeg  3.72224 -13.7669 2.29519
RightFoot  8.42935 -0.387985 2.55832
RightToes  -5.8209e-011 0 -3.6325e-017
Spine  2.4814 -1.13495 1.22185
Spine1  5.39288 -1.17049 -0.141466
HEad  17.5848 -1.1685 0.326404
LeftShoulder1  2.04121 -2.16792 -29.9449
LeftArm  5.35433 -16.3473 -30.892
LeftForeArm  -10.7187 -57.3443 -18.7486
LeftHand  -0.0114166 5.15469 -16.7063
RightShoulder  8.07162 14.2869 39.2743
RightArm  -5.05486 8.02261 8.90139
RightForeArm  -23.2015 61.0119 22.9374
RightHand  -0.308495 -6.83361 19.689
LeftUpLeg  3.5366 16.8785 2.9468
LeftLeg  19.4838 2.19369 1.19446
LeftFoot  -15.7707 -0.238198 -8.58655
LeftToes  5.72949e-011 5.22586e-011 2.45399e-011
655
root  80.4895 39.0678 34.2998 -178.977 17.5616 -179.253
RightUpLeg  -16.5038 -4.9445 -0.883648
RightLeg  6.7738 -14.4123 1.79624
RightFoot  6.01108 -0.269185 2.03351
RightToes  -5.8209e-011 0 -3.6325e-017
Spine  2.85206 -1.31472 2.10016
Spine1  5.25844 -1.55354 1.28042
HEad  12.5884 -1.247 1.62634
LeftShoulder1  2.05253 -2.18493 -30.0379
LeftArm  5.23751 -15.6527 -31.2869
LeftForeArm  -10.4348 -57.247 -18.6518
LeftHand  0.016156 4.97328 -16.6374
RightShoulder  8.08386 14.1285 39.731
RightArm  -5.2409 7.84106 8.82218
RightForeArm  -22.8568 60.7755 22.6758
RightHand  -0.263142 -6.58265 19.6814
LeftUpLeg  -0.117078 17.2934 4.84652
LeftLeg  27.5649 2.5613 1.79174
LeftFoot  -13.4689 -0.172785 -13.5811
LeftToes  5.72949e-011 5.22586e-011 2.45399e-011
656
root  81.036 39.0152 33.6537 -178.389 16.239 -178.635
RightUpLeg  -16.7618 -5.58266 -0.188487
RightLeg  9.36074 -15.0874 1.65354
RightFoot  3.73947 -0.15268 1.3462
RightToes  -5.8209e-011 0 -3.6325e-017
Spine  3.32823 -1.52775 3.3843
Spine1  4.85328 -1.78787 2.04953
HEad  8.28453 -1.79186 3.39089
LeftShoulder1  2.08819 -2.30494 -29.9056
LeftArm  5.74978 -15.7354 -31.4045
LeftForeArm  -10.4314 -57.0915 -18.5336
LeftHand  0.0292102 4.89042 -16.7647
RightShoulder  7.90033 13.6788 39.8617
RightArm  -5.30067 7.14361 8.87519
RightForeArm  -22.4594 61.1724 23.0508
RightHand  -0.276312 -6.64518 19.8351
LeftUpLeg  -4.74477 18.0156 6.51881
LeftLeg  36.0889 3.22274 2.88172
LeftFoot  -7.84651 0.528674 -15.712
LeftToes  5.72949e-011 5.22586e-011 2.45399e-011
